<svg width="656" height="302" viewBox="0 0 656 302" fill="none" xmlns="http://www.w3.org/2000/svg">
<g opacity="0.1">
<path d="M99.5749 95.7283C115.971 95.6945 132.103 99.8522 146.439 107.807C161.472 116.307 174.13 128.444 183.254 143.106C192.378 157.768 197.676 174.486 198.662 191.727V262.478C198.659 269.221 199.669 275.925 201.659 282.368C203.442 288.851 206.297 294.991 210.106 300.532H60.5214C52.6214 300.623 44.7841 299.117 37.4802 296.105C30.1763 293.093 23.556 288.637 18.0163 283.004C12.4874 277.486 8.10145 270.931 5.1092 263.715C2.11695 256.5 0.577359 248.765 0.57861 240.953C0.516147 233.89 2.23397 226.924 5.57373 220.7C14.4 205.009 28.4908 192.945 45.354 186.642C65.8276 179.848 87.6461 178.133 108.93 181.646C116.542 182.691 124.009 184.611 131.181 187.368C132.471 187.482 133.731 187.82 134.905 188.367C136.54 189.002 138.538 189.729 140.627 190.728L145.985 192.726V190.728C143.987 151.311 127.821 119.615 105.933 113.893C104.271 113.454 102.564 113.21 100.846 113.166H99.1209H97.8493C78.05 114.165 60.7939 138.415 54.7996 171.474L52.4381 170.111L12.6579 148.496C12.8577 147.526 13.2947 146.622 13.9295 145.862C22.4357 130.626 34.8628 117.942 49.9223 109.127C64.9817 100.311 82.1251 95.6858 99.5749 95.7283ZM146.439 213.797C146.439 211.073 136.358 205.987 134.269 204.715C130.005 202.518 125.492 200.841 120.827 199.719C110.233 197.184 99.2357 196.813 88.4946 198.63C79.7277 199.945 71.595 203.979 65.2441 210.164C61.1351 214.181 57.9068 219.009 55.7647 224.341C53.6226 229.673 52.6135 235.392 52.8015 241.135C53.1567 252.386 57.8953 263.052 66.0063 270.857C74.1173 278.663 84.9581 282.99 96.2146 282.913H125.096C127.95 282.901 130.774 282.324 133.404 281.216C136.033 280.107 138.418 278.489 140.419 276.454C142.42 274.419 143.998 272.008 145.063 269.36C146.127 266.711 146.657 263.878 146.621 261.025L146.439 213.797Z" fill="#595900"/>
<path d="M214.647 95.7272C216.952 95.7392 219.237 95.2934 221.369 94.4168C223.501 93.5401 225.438 92.2496 227.068 90.6196C228.698 88.9895 229.989 87.052 230.866 84.9199C231.743 82.7878 232.187 80.5033 232.175 78.198V57.5811C232.175 50.0118 233.668 42.5173 236.567 35.5252C239.467 28.5332 243.716 22.1811 249.073 16.833C254.429 11.4849 260.788 7.24554 267.784 4.35715C274.781 1.46876 282.279 -0.0118674 289.848 7.16305e-05H358.873V17.5293H322.544C317.536 17.493 312.571 18.4524 307.938 20.352C303.305 22.2515 299.095 25.0529 295.554 28.5938C292.013 32.1348 289.212 36.3443 287.312 40.9777C285.413 45.611 284.453 50.5758 284.489 55.5833V95.7272H358.964V112.893H302.018C297.376 112.917 292.932 114.77 289.649 118.053C286.367 121.335 284.513 125.779 284.489 130.421V262.477C284.334 275.992 288.225 289.244 295.661 300.531H221.186C228.434 289.163 232.279 275.959 232.266 262.477V112.893H201.296V95.7272H214.647Z" fill="#595900"/>
<path d="M475.76 193.813H474.67L460.139 200.625L457.596 196.084V192.724L451.057 190.18C449.964 189.752 448.998 189.052 448.251 188.146C447.504 187.24 447 186.159 446.788 185.004V184.278C446.493 182.71 445.657 181.296 444.426 180.281L443.064 179.191C442.062 178.406 441.332 177.326 440.976 176.104L438.523 168.928C438.145 167.936 437.556 167.038 436.798 166.295L430.985 160.754H435.254V160.028C435.835 158.567 435.899 156.951 435.437 155.448C434.974 153.945 434.012 152.645 432.71 151.763C431.19 150.744 429.335 150.354 427.534 150.673L419.541 152.308C418.186 152.765 416.719 152.765 415.364 152.308L411.821 150.764C411.147 150.404 410.404 150.188 409.642 150.128H405.101H404.192L398.38 148.675C397.215 148.4 396.002 148.4 394.838 148.675L391.114 149.765L390.206 154.124V154.579H387.117C385.503 154.374 384.002 153.639 382.849 152.49L382.304 151.854C381.342 150.876 380.108 150.211 378.762 149.947L375.946 149.31C374.744 149.083 373.625 148.532 372.713 147.716C371.801 146.9 371.129 145.85 370.77 144.679V144.043C370.307 142.484 369.302 141.141 367.936 140.258C366.57 139.375 364.934 139.01 363.322 139.229L333.714 143.317C332.876 143.496 332.009 143.496 331.171 143.317L327.175 142.318C343.494 126.739 365.192 118.053 387.753 118.068C408.959 118.432 429.368 126.205 445.442 140.04C461.517 153.875 472.243 172.899 475.76 193.813Z" fill="#595900"/>
<path d="M476.85 203.352L476.305 205.441L473.036 209.347L469.222 214.705C468.777 215.286 468.258 215.805 467.677 216.25L464.317 218.701C449.629 195.872 427.731 178.61 402.104 169.658C389.381 165.188 375.99 162.914 362.505 162.936C342.422 162.936 322.658 167.964 305.015 177.559C303.461 178.432 302.293 179.859 301.745 181.555C301.745 183.008 300.928 184.461 300.564 185.823C325.714 169.932 356.009 164.314 385.185 170.129C414.361 175.944 440.188 192.748 457.324 217.067C458.182 218.363 458.577 219.912 458.445 221.461C458.313 223.011 457.662 224.47 456.597 225.603L453.237 229.146L448.787 231.052L446.879 234.414L448.605 240.589L448.06 243.677C439.846 231.539 429.17 221.266 416.726 213.524C400.719 203.599 382.295 198.258 363.462 198.082C344.629 197.906 326.108 202.902 309.919 212.525L306.195 210.164L305.65 206.258L298.203 199.901C298.203 202.898 298.203 205.986 298.203 208.983C297.938 220.994 300.058 232.937 304.441 244.123C308.824 255.308 315.383 265.512 323.737 274.145C332.091 282.778 342.075 289.668 353.11 294.415C364.146 299.163 376.014 301.674 388.026 301.803H390.206V300.169L379.398 282.731C378.751 281.629 378.407 280.376 378.399 279.098V277.917C378.381 276.516 377.938 275.155 377.128 274.012L375.22 271.196C385.388 273.154 394.964 277.445 403.194 283.73C408.15 287.594 412.524 292.152 416.181 297.262L418.543 296.445C414.616 290.779 409.837 285.755 404.374 281.55C395.268 274.601 384.551 270.071 373.222 268.381L371.769 266.292L372.95 259.48C373.114 258.318 373.585 257.222 374.312 256.301L376.038 254.122C376.761 253.233 377.248 252.177 377.455 251.05C377.661 249.922 377.58 248.761 377.218 247.674L373.949 237.864L373.313 237.229C386.859 238.889 399.773 243.915 410.878 251.847C421.983 259.779 430.925 270.365 436.889 282.64L434.527 283.457C433.207 283.874 432.05 284.694 431.22 285.802C430.389 286.91 429.926 288.249 429.895 289.634V291.631C444.588 283.517 456.822 271.592 465.309 257.112C473.795 242.631 478.222 226.131 478.122 209.347C477.032 207.349 477.032 205.35 476.85 203.352ZM444.154 265.565L441.521 269.199C440.612 269.471 439.771 269.929 439.05 270.546C438.329 271.162 437.744 271.921 437.334 272.776C436.924 273.631 436.696 274.562 436.667 275.51C436.637 276.458 436.805 277.402 437.161 278.281C431.526 268.085 423.897 259.128 414.728 251.942C401.695 241.574 385.905 235.258 369.317 233.778L366.229 230.599L367.5 221.517L365.866 217.975L357.782 217.067C356.595 216.958 355.462 216.517 354.513 215.795L352.514 214.432C351.802 213.913 350.994 213.542 350.136 213.339C349.278 213.137 348.389 213.107 347.519 213.252L318.002 217.975L313.915 215.249C329.818 206.213 347.918 201.769 366.198 202.41C384.478 203.051 402.222 208.754 417.453 218.883C430.804 227.808 441.828 239.797 449.604 253.849C450.054 254.759 450.332 255.745 450.421 256.756V257.846C450.514 259.216 450.191 260.582 449.494 261.765C448.797 262.948 447.759 263.893 446.516 264.476L444.154 265.565Z" fill="#595900"/>
<path d="M580.662 227.42L522.082 197.449L509.275 191.001C503.736 188.134 498.924 184.041 495.206 179.033C491.489 174.024 488.965 168.232 487.826 162.1C486.687 155.967 486.964 149.655 488.635 143.646C490.306 137.637 493.327 132.089 497.469 127.425C506.587 117.592 517.629 109.736 529.908 104.346C542.188 98.9558 555.444 96.1459 568.855 96.0906C586.723 96.2612 604.212 101.266 619.467 110.572C634.721 119.878 647.173 133.14 655.5 148.95L613.358 171.564C606.91 137.869 589.472 113.62 568.855 113.62H566.857C561.774 114.163 557.001 116.328 553.244 119.795C549.488 123.262 546.948 127.846 546 132.87C545.053 137.893 545.748 143.087 547.983 147.685C550.218 152.282 553.875 156.037 558.411 158.395L615.356 187.367L630.887 195.451C636.663 198.355 641.736 202.485 645.751 207.553C649.765 212.621 652.625 218.505 654.13 224.793C655.635 231.081 655.749 237.621 654.464 243.957C653.179 250.294 650.525 256.274 646.69 261.479C637.676 273.65 625.946 283.55 612.434 290.393C598.923 297.236 584.001 300.832 568.855 300.895C549.612 300.75 530.828 295.003 514.796 284.359C498.764 273.714 486.179 258.632 478.577 240.953L479.577 240.226L521.718 217.339H523.081C527.44 255.485 546.331 283.73 568.492 283.73C572.068 283.727 575.611 283.049 578.936 281.732C584.306 279.606 588.937 275.956 592.259 271.232C595.581 266.507 597.448 260.915 597.632 255.143C597.815 249.37 596.306 243.67 593.291 238.744C590.276 233.819 585.886 229.883 580.662 227.42Z" fill="#595900"/>
</g>
</svg>
