<svg width="48" height="48" viewBox="0 0 48 48" fill="none" xmlns="http://www.w3.org/2000/svg">
<rect x="1" y="1" width="46" height="46" rx="6" fill="#0D0B0B"/>
<path d="M24.0006 12C17.3703 12 12 17.506 12 24.3038C11.9986 26.8866 12.7904 29.4042 14.2631 31.4997C15.7358 33.5951 17.8147 35.1618 20.2048 35.9777C20.8048 36.0847 21.0305 35.7156 21.0305 35.392C21.0305 35.1004 21.0149 34.1321 21.0149 33.1011C18.0003 33.6707 17.2203 32.3481 16.9803 31.6554C16.8446 31.301 16.2602 30.2097 15.7502 29.9168C15.3302 29.6868 14.7301 29.1171 15.7346 29.1023C16.6802 29.0863 17.3547 29.9943 17.5803 30.3635C18.6603 32.2238 20.3848 31.7009 21.0749 31.3785C21.1805 30.5788 21.4949 30.0411 21.8405 29.7335C19.1704 29.4259 16.3802 28.3641 16.3802 23.6579C16.3802 22.3192 16.8446 21.2131 17.6103 20.3506C17.4903 20.043 17.0703 18.7819 17.7303 17.0901C17.7303 17.0901 18.7347 16.7677 21.0305 18.3525C22.0074 18.0745 23.0168 17.9346 24.0306 17.9366C25.0507 17.9366 26.0707 18.0744 27.0308 18.3512C29.3265 16.7517 30.3309 17.0913 30.3309 17.0913C30.9909 18.7831 30.5709 20.0442 30.4509 20.3518C31.2154 21.2131 31.681 22.3045 31.681 23.6579C31.681 28.3801 28.8764 29.4259 26.2051 29.7335C26.6407 30.1174 27.0164 30.8556 27.0164 32.0097C27.0164 33.6547 27.0008 34.9774 27.0008 35.3933C27.0008 35.7156 27.2264 36.0995 27.8264 35.9765C30.2083 35.1517 32.278 33.5818 33.7443 31.4879C35.2105 29.394 35.9994 26.8815 36 24.3038C36 17.506 30.6297 12 23.9994 12H24.0006Z" fill="white"/>
<rect x="1" y="1" width="46" height="46" rx="6" stroke="white" stroke-width="2"/>
</svg>
