<svg width="24" height="25" viewBox="0 0 24 25" fill="none" xmlns="http://www.w3.org/2000/svg">
<path d="M12 9.81867C10.2797 9.81867 8.87579 11.2226 8.87579 12.9429C8.87579 14.6632 10.2797 16.0671 12 16.0671C13.7203 16.0671 15.1242 14.6632 15.1242 12.9429C15.1242 11.2226 13.7203 9.81867 12 9.81867ZM21.3703 12.9429C21.3703 11.6491 21.382 10.3671 21.3094 9.0757C21.2367 7.5757 20.8945 6.24445 19.7977 5.14757C18.6984 4.04835 17.3695 3.70851 15.8695 3.63585C14.5758 3.5632 13.2938 3.57492 12.0023 3.57492C10.7086 3.57492 9.42657 3.5632 8.13516 3.63585C6.63516 3.70851 5.30391 4.0507 4.20704 5.14757C3.10782 6.24679 2.76797 7.5757 2.69532 9.0757C2.62266 10.3694 2.63438 11.6515 2.63438 12.9429C2.63438 14.2343 2.62266 15.5187 2.69532 16.8101C2.76797 18.3101 3.11016 19.6413 4.20704 20.7382C5.30625 21.8374 6.63516 22.1773 8.13516 22.2499C9.42891 22.3226 10.7109 22.3109 12.0023 22.3109C13.2961 22.3109 14.5781 22.3226 15.8695 22.2499C17.3695 22.1773 18.7008 21.8351 19.7977 20.7382C20.8969 19.639 21.2367 18.3101 21.3094 16.8101C21.3844 15.5187 21.3703 14.2366 21.3703 12.9429ZM12 17.7499C9.33985 17.7499 7.19297 15.603 7.19297 12.9429C7.19297 10.2827 9.33985 8.13585 12 8.13585C14.6602 8.13585 16.807 10.2827 16.807 12.9429C16.807 15.603 14.6602 17.7499 12 17.7499ZM17.0039 9.06163C16.3828 9.06163 15.8813 8.56007 15.8813 7.93898C15.8813 7.31788 16.3828 6.81632 17.0039 6.81632C17.625 6.81632 18.1266 7.31788 18.1266 7.93898C18.1268 8.08646 18.0978 8.23253 18.0415 8.36882C17.9851 8.50511 17.9024 8.62894 17.7982 8.73323C17.6939 8.83751 17.57 8.9202 17.4338 8.97655C17.2975 9.03291 17.1514 9.06182 17.0039 9.06163Z" fill="#222222"/>
</svg>
