<svg width="24" height="24" viewBox="0 0 24 24" fill="none" xmlns="http://www.w3.org/2000/svg">
<g id="logos:atlassian" clip-path="url(#clip0_784_108)">
<path id="Vector" d="M7.10561 11.0578C6.74748 10.6753 6.18967 10.6969 5.9462 11.1836L0.0741715 22.928C0.0206319 23.035 -0.0046575 23.154 0.000705311 23.2735C0.00606812 23.3931 0.041905 23.5093 0.104812 23.6111C0.16772 23.7129 0.255609 23.7969 0.360132 23.8552C0.464655 23.9135 0.582342 23.9441 0.702015 23.944H8.87964C9.01066 23.9471 9.13975 23.912 9.25123 23.8431C9.36271 23.7743 9.4518 23.6745 9.50767 23.5559C11.2709 19.91 10.2026 14.3668 7.10561 11.0578Z" fill="white"/>
<path id="Vector_2" d="M11.4147 0.376029C8.13036 5.57962 8.34711 11.3428 10.5104 15.6695L14.4535 23.5558C14.5118 23.6724 14.6014 23.7705 14.7123 23.839C14.8232 23.9076 14.951 23.9439 15.0814 23.9439H23.2589C23.3786 23.9439 23.4962 23.9133 23.6008 23.8551C23.7053 23.7968 23.7932 23.7128 23.8561 23.6109C23.919 23.5091 23.9548 23.3929 23.9602 23.2734C23.9656 23.1538 23.9403 23.0349 23.8867 22.9279C23.8867 22.9279 12.8855 0.922217 12.6088 0.371623C12.3613 -0.121314 11.7328 -0.128064 11.4147 0.376029Z" fill="white"/>
</g>
<defs>
<clipPath id="clip0_784_108">
<rect width="24" height="24" fill="white"/>
</clipPath>
</defs>
</svg>
