<svg width="64" height="72" viewBox="0 0 64 72" fill="none" xmlns="http://www.w3.org/2000/svg">
<path d="M0.197632 0H64V72H15.1976C6.91337 72 0.197632 65.2843 0.197632 57V0Z" fill="white"/>
<path d="M47.8958 32.2226C47.7765 31.8436 47.5464 31.5089 47.2353 31.2616C46.9241 31.0144 46.5461 30.8658 46.1499 30.8351L37.5561 30.0923C37.5041 30.0872 37.4545 30.0681 37.4125 30.037C37.3705 30.006 37.3377 29.9641 37.3176 29.9159L33.9601 21.9147C33.8046 21.5497 33.5453 21.2384 33.2143 21.0197C32.8833 20.8009 32.4953 20.6843 32.0986 20.6843C31.7018 20.6843 31.3138 20.8009 30.9828 21.0197C30.6519 21.2384 30.3925 21.5497 30.237 21.9147L26.8795 29.9159C26.8594 29.9641 26.8266 30.006 26.7846 30.037C26.7426 30.0681 26.693 30.0872 26.6411 30.0923L18.0472 30.8351C17.651 30.8658 17.273 31.0144 16.9619 31.2616C16.6507 31.5089 16.4207 31.8436 16.3013 32.2226C16.1749 32.6023 16.1638 33.0108 16.2696 33.3967C16.3753 33.7826 16.5931 34.1285 16.8953 34.3906L23.4151 40.0779C23.455 40.1134 23.4847 40.1589 23.501 40.2098C23.5172 40.2606 23.5195 40.3149 23.5076 40.367L21.5478 48.8235C21.4564 49.2129 21.4825 49.6205 21.6227 49.9951C21.7629 50.3696 22.0109 50.6942 22.3355 50.9279C22.655 51.1636 23.0379 51.2982 23.4346 51.3142C23.8314 51.3301 24.2238 51.2268 24.5613 51.0175L31.9482 46.537C31.9917 46.5101 32.0417 46.4959 32.0928 46.4959C32.1438 46.4959 32.1939 46.5101 32.2373 46.537L39.6243 51.0175C39.9653 51.2262 40.3604 51.3293 40.7599 51.3137C41.1593 51.2981 41.5452 51.1645 41.8688 50.9298C42.1924 50.6951 42.4393 50.3698 42.5782 49.9949C42.7171 49.62 42.7419 49.2124 42.6493 48.8235L40.6953 40.3641C40.6834 40.312 40.6857 40.2577 40.7019 40.2069C40.7182 40.156 40.7479 40.1105 40.7878 40.075L47.3076 34.3877C47.6083 34.1251 47.8246 33.7794 47.9293 33.3942C48.0339 33.0089 48.0223 32.6013 47.8958 32.2226ZM46.1615 33.0783L39.6416 38.7656C39.3638 39.0073 39.1573 39.3202 39.0442 39.6707C38.9311 40.0212 38.9158 40.3958 38.9999 40.7543L40.954 49.2137C40.9684 49.2706 40.9652 49.3305 40.9449 49.3855C40.9245 49.4404 40.8878 49.4879 40.8398 49.5216C40.7964 49.5564 40.7429 49.5764 40.6873 49.5788C40.6317 49.5811 40.5767 49.5656 40.5305 49.5346L33.1435 45.0541C32.8286 44.8627 32.4671 44.7615 32.0986 44.7615C31.73 44.7615 31.3685 44.8627 31.0536 45.0541L23.6666 49.5346C23.6204 49.5656 23.5655 49.5811 23.5098 49.5788C23.4542 49.5764 23.4008 49.5564 23.3573 49.5216C23.3093 49.4879 23.2727 49.4404 23.2523 49.3855C23.2319 49.3305 23.2287 49.2706 23.2431 49.2137L25.1972 40.7543C25.2813 40.3958 25.266 40.0212 25.1529 39.6707C25.0399 39.3202 24.8333 39.0073 24.5555 38.7656L18.0357 33.0783C17.9911 33.0404 17.9591 32.9898 17.9438 32.9333C17.9286 32.8767 17.9309 32.8169 17.9504 32.7618C17.965 32.7068 17.9966 32.6579 18.0408 32.622C18.0849 32.5862 18.1393 32.5653 18.1961 32.5623L26.7914 31.8194C27.1593 31.7881 27.5117 31.6566 27.8103 31.4393C28.1089 31.222 28.3423 30.9271 28.4853 30.5866L31.8427 22.5853C31.8661 22.5356 31.9031 22.4937 31.9494 22.4642C31.9957 22.4348 32.0495 22.4192 32.1043 22.4192C32.1592 22.4192 32.213 22.4348 32.2593 22.4642C32.3056 22.4937 32.3426 22.5356 32.3659 22.5853L35.7118 30.5866C35.8543 30.9263 36.0869 31.2206 36.3844 31.4379C36.6819 31.6551 37.033 31.787 37.4 31.8194L45.9952 32.5623C46.052 32.5653 46.1064 32.5862 46.1506 32.622C46.1947 32.6579 46.2263 32.7068 46.2409 32.7618C46.2611 32.8164 46.2643 32.8758 46.2501 32.9323C46.236 32.9888 46.205 33.0397 46.1615 33.0783Z" fill="#222222"/>
</svg>
