<svg width="24" height="25" viewBox="0 0 24 25" fill="none" xmlns="http://www.w3.org/2000/svg">
<path d="M22.212 6.5988C21.4489 6.9364 20.6396 7.15817 19.811 7.2568C20.6841 6.73393 21.3373 5.91154 21.649 4.9428C20.829 5.4308 19.93 5.7728 18.994 5.9578C18.3646 5.28438 17.5304 4.83776 16.621 4.68738C15.7116 4.537 14.7779 4.69129 13.9653 5.12625C13.1526 5.56121 12.5064 6.25248 12.1271 7.09259C11.7478 7.9327 11.6568 8.87458 11.868 9.7718C10.2049 9.68859 8.57797 9.25653 7.09274 8.50366C5.60752 7.7508 4.29724 6.69397 3.247 5.4018C2.87529 6.04025 2.67996 6.76602 2.681 7.5048C2.681 8.9548 3.42 10.2358 4.541 10.9858C3.87702 10.9649 3.22765 10.7855 2.647 10.4628V10.5138C2.64697 11.4797 2.98104 12.4158 3.59253 13.1635C4.20403 13.9111 5.05532 14.4242 6.002 14.6158C5.38564 14.783 4.7393 14.8076 4.112 14.6878C4.37893 15.5192 4.89922 16.2463 5.6 16.7672C6.30078 17.2881 7.14696 17.5768 8.02 17.5928C7.15236 18.2742 6.15889 18.778 5.09641 19.0752C4.03393 19.3724 2.92329 19.4572 1.828 19.3248C3.73972 20.5542 5.96511 21.2069 8.238 21.2048C15.932 21.2048 20.138 14.8318 20.138 9.3048C20.138 9.1248 20.134 8.9428 20.126 8.7638C20.9444 8.17216 21.6508 7.43836 22.212 6.5988Z" fill="#222222"/>
</svg>
