<svg width="107" height="50" viewBox="0 0 107 50" fill="none" xmlns="http://www.w3.org/2000/svg">
<path d="M16.0651 16.0466C18.7257 16.0412 21.3436 16.7159 23.6701 18.0068C26.1095 19.3861 28.1636 21.3557 29.6443 23.735C31.1249 26.1143 31.9846 28.8272 32.1446 31.625V43.1063C32.1441 44.2004 32.3081 45.2884 32.631 46.3339C32.9203 47.386 33.3836 48.3823 34.0016 49.2815H9.72759C8.44559 49.2962 7.17379 49.0519 5.98854 48.5632C4.80328 48.0744 3.72897 47.3513 2.83001 46.4371C1.93279 45.5417 1.22105 44.478 0.735476 43.307C0.249903 42.1361 6.38246e-05 40.8809 0.000266868 39.6133C-0.00986939 38.467 0.268894 37.3367 0.810859 36.3266C2.24315 33.7804 4.52976 31.8227 7.26627 30.7998C10.5887 29.6972 14.1293 29.419 17.5831 29.9891C18.8185 30.1587 20.0301 30.4703 21.194 30.9176C21.4033 30.9362 21.6078 30.9911 21.7983 31.0797C22.0636 31.1829 22.3878 31.3008 22.7268 31.4629L23.5963 31.7871V31.4629C23.2721 25.0665 20.6487 19.9228 17.0968 18.9943C16.8272 18.9232 16.5501 18.8835 16.2714 18.8763H15.9914H15.785C12.5721 19.0384 9.7718 22.9736 8.79907 28.3384L8.41586 28.1173L1.96045 24.6095C1.99288 24.4522 2.06379 24.3055 2.16681 24.1823C3.54716 21.7098 5.56379 19.6514 8.00759 18.2209C10.4514 16.7904 13.2334 16.0397 16.0651 16.0466ZM23.6701 35.2065C23.6701 34.7644 22.0341 33.939 21.6951 33.7327C21.0031 33.3762 20.2708 33.1039 19.5138 32.922C17.7946 32.5105 16.01 32.4503 14.267 32.7451C12.8443 32.9585 11.5246 33.6133 10.494 34.6169C9.82718 35.2688 9.3033 36.0522 8.95568 36.9175C8.60807 37.7827 8.44432 38.7108 8.47482 39.6428C8.53247 41.4686 9.30144 43.1994 10.6177 44.466C11.9339 45.7327 13.6931 46.4348 15.5198 46.4224H20.2065C20.6697 46.4205 21.1279 46.3269 21.5547 46.1469C21.9814 45.967 22.3684 45.7044 22.6931 45.3742C23.0178 45.044 23.274 44.6527 23.4467 44.223C23.6194 43.7932 23.7054 43.3335 23.6995 42.8704L23.6701 35.2065Z" fill="#383838"/>
<path d="M34.7386 16.0465C35.1127 16.0485 35.4835 15.9761 35.8295 15.8339C36.1755 15.6916 36.4898 15.4822 36.7543 15.2177C37.0188 14.9531 37.2283 14.6387 37.3706 14.2927C37.5129 13.9467 37.585 13.576 37.5831 13.2019V9.85629C37.5831 8.62796 37.8253 7.41177 38.2958 6.27713C38.7663 5.14248 39.4559 4.11169 40.3251 3.24382C41.1943 2.37594 42.2262 1.68799 43.3616 1.21927C44.4969 0.750553 45.7137 0.510281 46.942 0.512219H58.1431V3.3568H52.2478C51.4352 3.35092 50.6295 3.5066 49.8776 3.81486C49.1257 4.12311 48.4426 4.57771 47.868 5.15232C47.2934 5.72693 46.8388 6.41005 46.5305 7.16193C46.2223 7.91382 46.0665 8.71949 46.0724 9.53209V16.0465H58.1579V18.8321H48.9169C48.1637 18.836 47.4424 19.1368 46.9098 19.6694C46.3772 20.202 46.0763 20.9233 46.0724 21.6765V43.1061C46.0472 45.2993 46.6786 47.4498 47.8853 49.2814H35.7997C36.976 47.4366 37.5999 45.294 37.5978 43.1061V18.8321H32.5721V16.0465H34.7386Z" fill="#383838"/>
<path d="M77.1112 31.9637H76.9343L74.5762 33.0691L74.1635 32.3322V31.7869L73.1024 31.3741C72.925 31.3046 72.7683 31.191 72.6471 31.044C72.5258 30.897 72.4441 30.7215 72.4097 30.5341V30.4163C72.3618 30.1619 72.2262 29.9323 72.0264 29.7677L71.8054 29.5909C71.6428 29.4634 71.5243 29.2882 71.4665 29.0898L71.0685 27.9254C71.0071 27.7644 70.9116 27.6187 70.7885 27.4981L69.8452 26.5989H70.538V26.4811C70.6322 26.244 70.6427 25.9818 70.5676 25.7379C70.4926 25.494 70.3365 25.283 70.1252 25.1398C69.8786 24.9746 69.5775 24.9112 69.2851 24.963L67.9882 25.2284C67.7682 25.3025 67.5302 25.3025 67.3102 25.2284L66.7354 24.9777C66.6259 24.9193 66.5055 24.8843 66.3817 24.8747H65.6448H65.4974L64.5542 24.6388C64.3652 24.5942 64.1684 24.5942 63.9794 24.6388L63.375 24.8156L63.2277 25.5231V25.5968H62.7265C62.4645 25.5636 62.2209 25.4444 62.0339 25.2579L61.9455 25.1546C61.7894 24.9959 61.589 24.8881 61.3706 24.8451L60.9138 24.7419C60.7186 24.705 60.5371 24.6156 60.389 24.4832C60.241 24.3507 60.132 24.1803 60.0737 23.9904V23.8871C59.9986 23.6341 59.8356 23.4162 59.6139 23.2729C59.3922 23.1296 59.1266 23.0704 58.8651 23.1059L54.0604 23.7693C53.9244 23.7983 53.7838 23.7983 53.6478 23.7693L52.9993 23.6072C55.6475 21.0791 59.1685 19.6695 62.8297 19.672C66.2708 19.731 69.5828 20.9924 72.1913 23.2375C74.7999 25.4826 76.5404 28.5697 77.1112 31.9637Z" fill="#383838"/>
<path d="M77.2881 33.5116L77.1997 33.8505L76.6691 34.4843L76.0501 35.3538C75.9781 35.4481 75.8937 35.5324 75.7995 35.6045L75.2542 36.0023C72.8707 32.2977 69.3171 29.4964 65.1585 28.0437C63.0938 27.3183 60.9209 26.9493 58.7326 26.9529C55.4735 26.953 52.2662 27.7689 49.4032 29.3259C49.151 29.4676 48.9616 29.6991 48.8726 29.9743C48.8726 30.2101 48.7399 30.4459 48.681 30.667C52.7623 28.0882 57.6784 27.1765 62.413 28.1201C67.1476 29.0638 71.3386 31.7907 74.1194 35.7371C74.2587 35.9475 74.3228 36.1988 74.3014 36.4502C74.28 36.7017 74.1743 36.9385 74.0015 37.1224L73.4562 37.6972L72.734 38.0066L72.4245 38.5521L72.7045 39.5542L72.6161 40.0553C71.2832 38.0856 69.5508 36.4185 67.5313 35.1622C64.9338 33.5516 61.944 32.6848 58.8878 32.6563C55.8316 32.6277 52.8262 33.4384 50.199 35.0001L49.5948 34.6169L49.5063 33.9831L48.2978 32.9515C48.2978 33.4379 48.2978 33.939 48.2978 34.4253C48.2548 36.3743 48.5989 38.3125 49.3101 40.1276C50.0214 41.9427 51.0857 43.5987 52.4414 44.9996C53.7971 46.4006 55.4172 47.5185 57.208 48.289C58.9988 49.0594 60.9247 49.4669 62.874 49.4879H63.2277V49.2227L61.4739 46.3929C61.3689 46.214 61.313 46.0106 61.3118 45.8033V45.6117C61.3089 45.3844 61.2369 45.1635 61.1054 44.978L60.7959 44.5211C62.446 44.8388 63.9999 45.535 65.3353 46.555C66.1396 47.182 66.8494 47.9216 67.4429 48.751L67.8261 48.6184C67.1889 47.6989 66.4134 46.8836 65.5269 46.2013C64.0493 45.0736 62.3101 44.3384 60.4717 44.0643L60.2358 43.7251L60.4274 42.6198C60.4542 42.4313 60.5305 42.2533 60.6485 42.104L60.9286 41.7502C61.0459 41.606 61.125 41.4346 61.1585 41.2517C61.192 41.0688 61.1788 40.8803 61.1202 40.7039L60.5896 39.112L60.4864 39.0089C62.6845 39.2784 64.7802 40.0939 66.5823 41.3811C68.3844 42.6683 69.8355 44.3862 70.8033 46.3781L70.4201 46.5107C70.2058 46.5784 70.0181 46.7115 69.8833 46.8912C69.7485 47.071 69.6734 47.2884 69.6684 47.513V47.8372C72.0527 46.5204 74.0379 44.5853 75.4151 42.2355C76.7924 39.8856 77.5107 37.208 77.4945 34.4843C77.3176 34.1601 77.3176 33.8358 77.2881 33.5116ZM71.9823 43.6073L71.5549 44.1969C71.4075 44.241 71.2709 44.3155 71.1539 44.4155C71.0369 44.5154 70.9421 44.6387 70.8755 44.7774C70.8089 44.9162 70.772 45.0673 70.7672 45.2211C70.7624 45.3749 70.7897 45.5281 70.8474 45.6707C69.933 44.0162 68.695 42.5626 67.2071 41.3965C65.0921 39.7141 62.5298 38.6892 59.8379 38.4489L59.3368 37.9331L59.5431 36.4592L59.2779 35.8844L57.9661 35.7371C57.7734 35.7194 57.5896 35.6479 57.4356 35.5307L57.1113 35.3096C56.9957 35.2254 56.8645 35.1651 56.7253 35.1322C56.5861 35.0993 56.4418 35.0944 56.3007 35.118L51.5107 35.8844L50.8475 35.4422C53.4282 33.9758 56.3654 33.2545 59.3318 33.3586C62.2983 33.4627 65.1776 34.388 67.6492 36.0318C69.8159 37.4802 71.6047 39.4257 72.8666 41.706C72.9397 41.8536 72.9847 42.0136 72.9993 42.1777V42.3546C73.0144 42.5769 72.962 42.7986 72.8489 42.9906C72.7358 43.1826 72.5673 43.3359 72.3655 43.4304L71.9823 43.6073Z" fill="#383838"/>
<path d="M94.1343 37.4172L84.6281 32.5535L82.5499 31.5071C81.651 31.042 80.8701 30.3777 80.2669 29.565C79.6636 28.7522 79.254 27.8123 79.0692 26.8172C78.8844 25.822 78.9293 24.7977 79.2004 23.8225C79.4716 22.8474 79.9619 21.9471 80.634 21.1902C82.1137 19.5945 83.9055 18.3197 85.8982 17.445C87.8909 16.5704 90.0421 16.1144 92.2183 16.1054C95.1179 16.1331 97.956 16.9452 100.431 18.4554C102.907 19.9656 104.927 22.1176 106.279 24.6832L99.4401 28.3531C98.3937 22.8851 95.5639 18.95 92.2183 18.95H91.8941C91.0692 19.0381 90.2946 19.3895 89.685 19.9521C89.0755 20.5147 88.6633 21.2586 88.5095 22.0738C88.3557 22.889 88.4686 23.7319 88.8313 24.478C89.194 25.224 89.7874 25.8334 90.5234 26.2159L99.7643 30.9175L102.285 32.2293C103.222 32.7005 104.045 33.3708 104.697 34.1932C105.348 35.0156 105.812 35.9704 106.056 36.9908C106.301 38.0112 106.319 39.0725 106.111 40.1008C105.902 41.129 105.472 42.0995 104.849 42.9441C103.386 44.9192 101.483 46.5258 99.2903 47.6362C97.0976 48.7466 94.6761 49.3302 92.2183 49.3405C89.0956 49.3168 86.0474 48.3843 83.4458 46.6569C80.8442 44.9295 78.8019 42.482 77.5684 39.6132L77.7305 39.4952L84.5691 35.7813H84.7902C85.4976 41.9714 88.5632 46.5549 92.1594 46.5549C92.7397 46.5544 93.3147 46.4444 93.8542 46.2307C94.7256 45.8858 95.4772 45.2934 96.0162 44.5268C96.5553 43.7601 96.8583 42.8526 96.8881 41.9159C96.9178 40.9792 96.673 40.0541 96.1837 39.2548C95.6944 38.4555 94.982 37.8168 94.1343 37.4172Z" fill="#383838"/>
</svg>
