<svg width="24" height="25" viewBox="0 0 24 25" fill="none" xmlns="http://www.w3.org/2000/svg">
<g clip-path="url(#clip0_543_2762)">
<path d="M0 2.66187C0 1.71237 0.789 0.942871 1.7625 0.942871H22.2375C23.211 0.942871 24 1.71237 24 2.66187V23.2239C24 24.1734 23.211 24.9429 22.2375 24.9429H1.7625C0.789 24.9429 0 24.1734 0 23.2239V2.66187ZM7.4145 21.0339V10.1964H3.813V21.0339H7.4145ZM5.6145 8.71587C6.87 8.71587 7.6515 7.88487 7.6515 6.84387C7.629 5.78037 6.8715 4.97187 5.6385 4.97187C4.4055 4.97187 3.6 5.78187 3.6 6.84387C3.6 7.88487 4.3815 8.71587 5.5905 8.71587H5.6145ZM12.9765 21.0339V14.9814C12.9765 14.6574 13.0005 14.3334 13.0965 14.1024C13.356 13.4559 13.9485 12.7854 14.9445 12.7854C16.248 12.7854 16.7685 13.7784 16.7685 15.2364V21.0339H20.37V14.8179C20.37 11.4879 18.594 9.93987 16.224 9.93987C14.313 9.93987 13.4565 10.9899 12.9765 11.7294V11.7669H12.9525C12.9605 11.7543 12.9685 11.7418 12.9765 11.7294V10.1964H9.3765C9.4215 11.2134 9.3765 21.0339 9.3765 21.0339H12.9765Z" fill="#222222"/>
</g>
<defs>
<clipPath id="clip0_543_2762">
<rect width="24" height="24" fill="white" transform="translate(0 0.942871)"/>
</clipPath>
</defs>
</svg>
