<svg width="688" height="744" viewBox="0 0 688 744" fill="none" xmlns="http://www.w3.org/2000/svg">
<path d="M687.354 295.901V267.133C687.354 264.492 685.627 262.162 683.101 261.393L662.85 255.229C660.582 254.539 658.121 255.249 656.569 257.04L644.534 270.927C643.646 271.951 642.439 272.65 641.101 272.868C634.025 274.021 622.165 275.174 618.611 272.508C615.136 269.902 612.686 256.219 611.6 247.43C611.356 245.456 610.198 243.707 608.449 242.759L583.586 229.292C582.417 228.659 581.491 227.655 580.954 226.438L563.782 187.513C563.509 186.894 563.133 186.325 562.67 185.831L546.579 168.667C545.536 167.555 544.956 166.088 544.956 164.563V149.295C544.956 147.996 544.535 146.733 543.756 145.695L513.011 104.701C512.232 103.663 511.811 102.4 511.811 101.101V75.0582C511.811 73.3722 511.102 71.7641 509.857 70.6273L486.259 49.0816C484.61 47.576 482.261 47.1106 480.163 47.8737L446.501 60.1145C444.391 60.8816 442.03 60.4071 440.381 58.8846L427.958 47.418C427.396 46.8991 426.739 46.4924 426.024 46.22L403.415 37.6069C402.069 37.0939 400.583 37.0826 399.229 37.575L378.271 45.1962C375.9 46.0584 374.321 48.3119 374.321 50.835V70.7665C374.321 74.7005 370.599 77.5701 366.794 76.5689L352.992 72.9367C351.699 72.5965 350.556 71.8341 349.746 70.7707L332.429 48.0437C331.728 47.1225 330.774 46.4242 329.684 46.0329L287.451 30.8723C285.068 30.0168 283.478 27.7572 283.478 25.2251V7.21167C283.478 3.89796 280.792 1.21167 277.478 1.21167H214.736C213.924 1.21167 213.12 1.37674 212.373 1.69687L180.902 15.1852C179.753 15.6779 178.478 15.799 177.256 15.5318L142.98 8.03379C141.025 7.6062 138.986 8.18116 137.543 9.56686L110.07 35.9402C109.472 36.5149 108.999 37.2076 108.681 37.9744L95.3214 70.261C94.7489 71.6446 93.6797 72.7641 92.3239 73.3996L56.2992 90.2862C55.5406 90.6418 54.8649 91.1523 54.3156 91.7849L16.1081 135.781C15.1602 136.873 14.6383 138.27 14.6383 139.715V185.216C14.6383 186.112 14.4377 186.997 14.0512 187.805L1.72287 213.584C1.33636 214.392 1.13574 215.277 1.13574 216.173V226.927C1.13574 227.84 1.34426 228.742 1.74541 229.562L27.7191 282.691C27.9993 283.265 28.3691 283.789 28.8147 284.246L75.4787 332.078C76.6079 333.235 78.1564 333.888 79.7734 333.888H126.054C127.052 333.888 128.034 333.639 128.912 333.163L155.699 318.653C156.576 318.178 157.559 317.929 158.557 317.929H212.618C213.206 317.929 213.791 318.016 214.354 318.186L262.028 332.599C264.56 333.364 266.292 335.697 266.292 338.342V399.252C266.292 400.644 266.776 401.992 267.66 403.067L282.679 421.303C283.206 421.944 283.594 422.686 283.82 423.484L301.348 485.413C301.701 486.661 301.64 487.99 301.174 489.201L290.016 518.214C289.752 518.901 289.616 519.631 289.616 520.367V567.935C289.616 569.015 289.907 570.074 290.459 571.002L316.255 614.389C316.499 614.798 316.693 615.235 316.833 615.69L331.354 662.881L350.996 708.302L364.17 739.038C365.115 741.244 367.284 742.674 369.685 742.674H424.685C426.239 742.674 427.732 742.072 428.85 740.993L494.704 677.492C495.457 676.766 496.007 675.857 496.299 674.853L503.712 649.437C504.18 647.834 505.295 646.498 506.789 645.751L523.225 637.533C525.258 636.516 526.542 634.439 526.542 632.166V597.17C526.542 595.263 527.449 593.469 528.985 592.338L589.16 548.059C590.696 546.928 591.604 545.134 591.604 543.226V504.45C591.604 503.687 591.458 502.931 591.174 502.222L582.211 479.816C581.928 479.107 581.782 478.351 581.782 477.587V412.385C581.782 410.852 582.368 409.377 583.421 408.263L685.715 300.022C686.767 298.908 687.354 297.434 687.354 295.901Z" fill="black"/>
<path d="M627.619 653.544H616.383C613.426 653.544 610.91 651.39 610.455 648.468L604.745 611.802C604.568 610.666 604.721 609.503 605.186 608.452L626.837 559.501C627.08 558.952 627.403 558.443 627.797 557.991L664.209 516.116C665.747 514.348 668.174 513.637 670.423 514.295L681.965 517.675C684.997 518.563 686.821 521.651 686.135 524.735L678.817 557.66C678.668 558.331 678.405 558.971 678.039 559.552L643.618 614.282C643.316 614.762 643.084 615.282 642.928 615.827L633.388 649.194C632.652 651.769 630.298 653.544 627.619 653.544Z" fill="black"/>
<path d="M687.354 295.901V267.133C687.354 264.492 685.627 262.162 683.101 261.393L662.85 255.229C660.582 254.539 658.121 255.249 656.569 257.04L644.534 270.927C643.646 271.951 642.439 272.65 641.101 272.868C634.025 274.021 622.165 275.174 618.611 272.508C615.136 269.902 612.686 256.219 611.6 247.43C611.356 245.456 610.198 243.707 608.449 242.759L583.586 229.292C582.417 228.659 581.491 227.655 580.954 226.438L563.782 187.513C563.509 186.894 563.133 186.325 562.67 185.831L546.579 168.667C545.536 167.555 544.956 166.088 544.956 164.563V149.295C544.956 147.996 544.535 146.733 543.756 145.695L513.011 104.701C512.232 103.663 511.811 102.4 511.811 101.101V75.0582C511.811 73.3722 511.102 71.7641 509.857 70.6273L486.259 49.0816C484.61 47.576 482.261 47.1106 480.163 47.8737L446.501 60.1145C444.391 60.8816 442.03 60.4071 440.381 58.8846L427.958 47.418C427.396 46.8991 426.739 46.4924 426.024 46.22L403.415 37.6069C402.069 37.0939 400.583 37.0826 399.229 37.575L378.271 45.1962C375.9 46.0584 374.321 48.3119 374.321 50.835V70.7665C374.321 74.7005 370.599 77.5701 366.794 76.5689L352.992 72.9367C351.699 72.5965 350.556 71.8341 349.746 70.7707L332.429 48.0437C331.728 47.1225 330.774 46.4242 329.684 46.0329L287.451 30.8723C285.068 30.0168 283.478 27.7572 283.478 25.2251V7.21167C283.478 3.89796 280.792 1.21167 277.478 1.21167H214.736C213.924 1.21167 213.12 1.37674 212.373 1.69687L180.902 15.1852C179.753 15.6779 178.478 15.799 177.256 15.5318L142.98 8.03379C141.025 7.6062 138.986 8.18116 137.543 9.56686L110.07 35.9402C109.472 36.5149 108.999 37.2076 108.681 37.9744L95.3214 70.261C94.7489 71.6446 93.6797 72.7641 92.3239 73.3996L56.2992 90.2862C55.5406 90.6418 54.8649 91.1523 54.3156 91.7849L16.1081 135.781C15.1602 136.873 14.6383 138.27 14.6383 139.715V185.216C14.6383 186.112 14.4377 186.997 14.0512 187.805L1.72287 213.584C1.33636 214.392 1.13574 215.277 1.13574 216.173V226.927C1.13574 227.84 1.34426 228.742 1.74541 229.562L27.7191 282.691C27.9993 283.265 28.3691 283.789 28.8147 284.246L75.4787 332.078C76.6079 333.235 78.1564 333.888 79.7734 333.888H126.054C127.052 333.888 128.034 333.639 128.912 333.163L155.699 318.653C156.576 318.178 157.559 317.929 158.557 317.929H212.618C213.206 317.929 213.791 318.016 214.354 318.186L262.028 332.599C264.56 333.364 266.292 335.697 266.292 338.342V399.252C266.292 400.644 266.776 401.992 267.66 403.067L282.679 421.303C283.206 421.944 283.594 422.686 283.82 423.484L301.348 485.413C301.701 486.661 301.64 487.99 301.174 489.201L290.016 518.214C289.752 518.901 289.616 519.631 289.616 520.367V567.935C289.616 569.015 289.907 570.074 290.459 571.002L316.255 614.389C316.499 614.798 316.693 615.235 316.833 615.69L331.354 662.881L350.996 708.302L364.17 739.038C365.115 741.244 367.284 742.674 369.685 742.674H424.685C426.239 742.674 427.732 742.072 428.85 740.993L494.704 677.492C495.457 676.766 496.007 675.857 496.299 674.853L503.712 649.437C504.18 647.834 505.295 646.498 506.789 645.751L523.225 637.533C525.258 636.516 526.542 634.439 526.542 632.166V597.17C526.542 595.263 527.449 593.469 528.985 592.338L589.16 548.059C590.696 546.928 591.604 545.134 591.604 543.226V504.45C591.604 503.687 591.458 502.931 591.174 502.222L582.211 479.816C581.928 479.107 581.782 478.351 581.782 477.587V412.385C581.782 410.852 582.368 409.377 583.421 408.263L685.715 300.022C686.767 298.908 687.354 297.434 687.354 295.901Z" stroke="#8A8A00"/>
<path d="M627.619 653.544H616.383C613.426 653.544 610.91 651.39 610.455 648.468L604.745 611.802C604.568 610.666 604.721 609.503 605.186 608.452L626.837 559.501C627.08 558.952 627.403 558.443 627.797 557.991L664.209 516.116C665.747 514.348 668.174 513.637 670.423 514.295L681.965 517.675C684.997 518.563 686.821 521.651 686.135 524.735L678.817 557.66C678.668 558.331 678.405 558.971 678.039 559.552L643.618 614.282C643.316 614.762 643.084 615.282 642.928 615.827L633.388 649.194C632.652 651.769 630.298 653.544 627.619 653.544Z" stroke="#8A8A00"/>
</svg>
